<svg version="1.1" width="400" baseProfile="full" id="Layer1" data-name="Layer 1" xmlns="http://www.w3.org/2000/svg" viewBox="0 0 400 400"><title>logo2</title><circle cx="200" cy="200" r="200" style="fill:#be1e2d"/><path d="M293.37,85.92a150,150,0,1,0,23.75,210.79A150,150,0,0,0,293.37,85.92Zm3.08,197.61a123.75,123.75,0,1,1-19.59-173.9A123.75,123.75,0,0,1,296.45,283.53Z" style="fill:#231f20;stroke:#231f20;stroke-miterlimit:10"/><rect x="75.95" y="186.5" width="247.5" height="29.5" style="fill:#231f20;stroke:#231f20;stroke-miterlimit:10"/><rect x="189" y="186.5" width="23.5" height="146" style="fill:#231f20;stroke:#231f20;stroke-miterlimit:10"/><path d="M189,216v22.5c0-12.44-14.16-22.5-31.67-22.5H189Z" style="fill:#231f20;stroke:#231f20;stroke-miterlimit:10"/><path d="M244.17,216c-17.51,0-31.67,10.06-31.67,22.5V216h31.67Z" style="fill:#231f20"/><path d="M244.17,216c-17.51,0-31.67,10.06-31.67,22.5V216h31.67Z" style="fill:none;stroke:#231f20;stroke-miterlimit:10"/><circle cx="200.75" cy="206.38" r="15" style="fill:#be1e2d;stroke:#231f20;stroke-miterlimit:10"/><path d="M47.34,91.59l5.87,4.74,1.57,1.27c2.27,1.84,2.74,2,3.81,1.18A28.5,28.5,0,0,0,62,95c3.09-3.83,3.89-5.1,3.74-5.94-0.12-.66-0.3-0.84-3.72-3.63L56.15,80.7l1.29-1.59,5.87,4.74a39.13,39.13,0,0,1,3.22,2.75,3.27,3.27,0,0,1,.81,4.23,46.81,46.81,0,0,1-3.61,5,39.65,39.65,0,0,1-4.21,4.7,3.32,3.32,0,0,1-4,.13,32.76,32.76,0,0,1-3.61-2.71l-5.87-4.74Z" style="fill:#231f20"/><path d="M60.3,76L75.17,80.2l0.52-.52L71.45,64.92l1.61-1.6,4.82,16.84-2.23,2.22L58.71,77.6Z" style="fill:#231f20"/><path d="M89.1,52c0.89,0.09,1.59.53,2.73,1.71,0.56,0.55,1.57,1.72,2.3,2.64,2.35,3,3.17,4.5,3.07,5.75s-1.26,2.59-4.94,5.51a49.05,49.05,0,0,1-6.39,4.6,3.3,3.3,0,0,1-3.51-.39A21.72,21.72,0,0,1,79,68.21c-2.56-3.22-3.29-4.73-2.95-6.12,0.25-.94.74-1.58,2.29-3,0.69-.61,2.72-2.31,3.77-3.14C86.25,52.71,87.71,51.88,89.1,52Zm-11,10.43c-0.12.74,0.6,2,2.43,4.32,2.12,2.67,3.07,3.61,3.78,3.73s1.18-.18,2.59-1.14c0.68-.48,2.74-2,3.51-2.64a37.91,37.91,0,0,0,4-3.59,1.76,1.76,0,0,0,.25-2.2,28.61,28.61,0,0,0-2.23-3.22,30.22,30.22,0,0,0-2.83-3.19,1.75,1.75,0,0,0-2.28-.1,41.12,41.12,0,0,0-5.06,3.72C79.36,60.53,78.27,61.66,78.14,62.46Z" style="fill:#231f20"/><path d="M106,39.68L106.89,41l-5.43,17.57,12-7.54,1,1.52L99.43,62l-0.72-1.15,5.54-17.91-11.58,7.3-1-1.52Z" style="fill:#231f20"/><path d="M111.53,36.8l17.93,6.26,0.43-.21L124,30.75l1.84-.89,6.69,13.8-3.12,1.51-17.88-6.25-0.41.2L117,51.19l-1.84.89-6.69-13.8Z" style="fill:#231f20"/><path d="M130.78,28.11l5.67,14.25-1.9.76-5.67-14.25Z" style="fill:#231f20"/><path d="M157.26,32.23l-11.92,3.41-0.86,3.62-2.23.64,4.14-17.14,3.14-.9,12.55,12.37-2.19.63Zm-8.36-8.33-0.8.23-2.31,9.51,10-2.87Z" style="fill:#231f20"/><path d="M161.65,18.8l1.26,7.44,0.34,2c0.49,2.88.75,3.3,2.07,3.4a28.49,28.49,0,0,0,5.06-.58c4.85-.82,6.3-1.26,6.73-2,0.35-.57.33-0.82-0.39-5.18l-1.26-7.44,2-.34,1.26,7.44a38.88,38.88,0,0,1,.6,4.19,3.27,3.27,0,0,1-2.19,3.71,46.72,46.72,0,0,1-6,1.34,39.57,39.57,0,0,1-6.27.74A3.31,3.31,0,0,1,161.81,31a32.6,32.6,0,0,1-.91-4.42l-1.26-7.44Z" style="fill:#231f20"/><path d="M197,14.75l0.12,1.79-7.64.5,0.88,13.52-2,.13-0.88-13.51-7.69.5-0.12-1.79Z" style="fill:#231f20"/><path d="M217.07,16.61c0.62,0.65.86,1.44,1,3.08,0.06,0.79.07,2.33,0,3.5-0.16,3.77-.55,5.48-1.44,6.36s-2.65,1.13-7.34.94a49.06,49.06,0,0,1-7.85-.69,3.3,3.3,0,0,1-2.4-2.59,21.8,21.8,0,0,1-.14-4.93c0.17-4.11.61-5.73,1.77-6.56,0.81-.54,1.59-0.72,3.69-0.77,0.92,0,3.57,0,4.9.09C214.48,15.26,216.13,15.58,217.07,16.61ZM202,17.34c-0.57.48-.86,1.92-1,4.86-0.14,3.4,0,4.74.43,5.29s1,0.64,2.71.83c0.83,0.08,3.4.25,4.38,0.3a38.12,38.12,0,0,0,5.41-.08,1.76,1.76,0,0,0,1.63-1.5,28.65,28.65,0,0,0,.41-3.9,30.2,30.2,0,0,0-.05-4.26,1.75,1.75,0,0,0-1.66-1.57,41.35,41.35,0,0,0-6.26-.49C204.15,16.67,202.58,16.81,202,17.34Z" style="fill:#231f20"/><path d="M226,16.38l5.95,14.26L242.2,19.23l4.05,0.71L243.6,35.05l-2-.35,2.33-13.23-0.84-.15L232.32,33.07l-1.63-.29L224.5,18.06l-0.88-.16-2.33,13.23-2-.35,2.65-15.11Z" style="fill:#231f20"/><path d="M266.41,27.55c0.43,0.79.45,1.62,0.11,3.22-0.15.77-.55,2.26-0.9,3.38-1.14,3.6-2,5.14-3.06,5.76s-2.85.4-7.32-1a49,49,0,0,1-7.38-2.73A3.29,3.29,0,0,1,246.21,33a21.76,21.76,0,0,1,1.16-4.79c1.25-3.92,2.09-5.37,3.43-5.86,0.92-.31,1.73-0.27,3.76.23,0.89,0.23,3.43,1,4.7,1.37C264.27,25.56,265.77,26.31,266.41,27.55Zm-14.77-3.27c-0.68.32-1.34,1.63-2.23,4.43-1,3.24-1.28,4.56-1,5.21s0.81,0.88,2.39,1.51c0.77,0.29,3.21,1.14,4.15,1.44a37.63,37.63,0,0,0,5.24,1.35,1.76,1.76,0,0,0,2-1,28.68,28.68,0,0,0,1.43-3.65,30.08,30.08,0,0,0,1.07-4.12,1.75,1.75,0,0,0-1.19-1.95,41.44,41.44,0,0,0-5.91-2.12C253.94,24.21,252.38,23.94,251.65,24.28Z" style="fill:#231f20"/><path d="M271,28l9.28,4.15c2.54,1.19,2.54,1.19,3.15,1.51a3.52,3.52,0,0,1,2,2.78,4,4,0,0,1-.48,2.13c-0.82,1.83-1.58,2.39-3.09,2.29,1.54,1,1.74,2.19.75,4.39a4.42,4.42,0,0,1-2.06,2.53c-1.17.48-2.76,0.08-6.58-1.63L264.78,42Zm3.74,16.52c4.39,2,5.08,1.95,6-.15a2.37,2.37,0,0,0,.23-2.14c-0.39-.65-0.39-0.65-4.14-2.41l-7.41-3.32-2.1,4.7Zm2.84-6.34c2.56,1.15,3.2,1.36,3.84,1.27A2.12,2.12,0,0,0,283,38a2.43,2.43,0,0,0,.23-2c-0.3-.56-0.4-0.63-3.67-2.17l-7.41-3.32-2,4.39Z" style="fill:#231f20"/><path d="M291.33,37.64l-7.19,13.55-1.81-1,7.19-13.55Z" style="fill:#231f20"/><path d="M295.7,40l-7,11.6,10.36,6.25-0.93,1.54L286,52.09,294,39Z" style="fill:#231f20"/><path d="M309.16,48.53l-8.63,12.69-1.69-1.15,8.63-12.69Z" style="fill:#231f20"/><path d="M316.76,53.76l8.1,6.81c3.63,3,4.36,4,4.46,5.67,0.08,1.48-.64,2.83-3,5.59-2.19,2.61-3.8,3.77-5.38,3.86s-2.56-.5-5.87-3.28l-8.22-6.91ZM316.19,71c2.27,1.91,2.34,2,3.13,2.36,1.52,0.77,3.09-.07,5.49-2.92,1.52-1.81,2.33-3.27,2.36-4.24a3.36,3.36,0,0,0-1.38-2.43c-0.29-.3-0.8-0.73-2.12-1.84l-6.5-5.46-7.56,9Z" style="fill:#231f20"/><path d="M326.39,79.25l-1.81,1.86-1.8-1.75,1.81-1.86Z" style="fill:#231f20"/><path d="M348.72,86.43c0,0.89-.44,1.62-1.55,2.83-0.52.59-1.63,1.66-2.51,2.44-2.82,2.5-4.32,3.41-5.58,3.38s-2.65-1.12-5.77-4.63a48.75,48.75,0,0,1-4.95-6.13,3.29,3.29,0,0,1,.19-3.52A21.77,21.77,0,0,1,332,77.27c3.08-2.73,4.54-3.54,5.95-3.28,0.95,0.2,1.62.65,3.12,2.12,0.65,0.66,2.45,2.59,3.34,3.59C347.89,83.63,348.8,85,348.72,86.43Zm-11-10.36c-0.74-.08-2,0.71-4.18,2.67C331,81,330.08,82,330,82.71s0.24,1.17,1.28,2.52c0.51,0.65,2.17,2.62,2.83,3.36a37.85,37.85,0,0,0,3.81,3.84,1.76,1.76,0,0,0,2.21.13,28.69,28.69,0,0,0,3.09-2.41,30.21,30.21,0,0,0,3-3,1.75,1.75,0,0,0,0-2.28,41.23,41.23,0,0,0-4-4.85C339.71,77.17,338.51,76.14,337.7,76.06Z" style="fill:#231f20"/><path d="M343.68,99l-2.06,1.58-1.52-2L342.16,97Z" style="fill:#231f20"/><path d="M364.71,109.39c-0.17.88-.67,1.54-2,2.56-0.6.5-1.86,1.4-2.84,2-3.16,2.06-4.78,2.73-6,2.52s-2.46-1.5-5-5.43a49,49,0,0,1-4-6.79,3.3,3.3,0,0,1,.71-3.46,21.86,21.86,0,0,1,3.93-3c3.45-2.25,5-2.83,6.36-2.37,0.91,0.34,1.51.88,2.77,2.56,0.54,0.75,2,2.92,2.77,4C364.3,106.5,365,108,364.71,109.39Zm-9.37-11.87c-0.73-.19-2.06.41-4.53,2-2.85,1.86-3.88,2.72-4.06,3.42s0.06,1.19.9,2.68c0.41,0.72,1.76,2.91,2.3,3.74a37.7,37.7,0,0,0,3.2,4.36,1.76,1.76,0,0,0,2.16.46,28.46,28.46,0,0,0,3.41-1.92,30.18,30.18,0,0,0,3.44-2.52,1.75,1.75,0,0,0,.31-2.26,41.37,41.37,0,0,0-3.24-5.38C357.16,98.91,356.13,97.72,355.34,97.52Z" style="fill:#231f20"/></svg>